<?xml version="1.0" encoding="utf-8"?>
<!-- Generator: Adobe Illustrator 19.0.0, SVG Export Plug-In . SVG Version: 6.00 Build 0)  -->
<svg version="1.1" id="Camada_1" xmlns="http://www.w3.org/2000/svg" xmlns:xlink="http://www.w3.org/1999/xlink" x="0px" y="0px"
	 viewBox="-293 385 24 24" style="enable-background:new -293 385 24 24;" xml:space="preserve">
<style type="text/css">
	.st0{fill:#F7B626;}
</style>
<path class="st0" d="M-271,397c0,5.5-4.5,10-10,10s-10-4.5-10-10s4.5-10,10-10S-271,391.5-271,397z M-269,397c0-6.6-5.4-12-12-12
	c-6.6,0-12,5.4-12,12c0,6.6,5.4,12,12,12C-274.4,409-269,403.6-269,397z M-281,399l-4.5-4.5l-1.5,1.5l6,6l6-6l-1.5-1.5L-281,399z"/>
</svg>
