<?xml version="1.0" encoding="utf-8"?>
<!-- Generator: Adobe Illustrator 19.0.0, SVG Export Plug-In . SVG Version: 6.00 Build 0)  -->
<svg version="1.1" id="Camada_1" xmlns="http://www.w3.org/2000/svg" xmlns:xlink="http://www.w3.org/1999/xlink" x="0px" y="0px"
	 viewBox="-293 385 24 24" style="enable-background:new -293 385 24 24;" xml:space="preserve">
<style type="text/css">
	.st0{fill:#F7B626;}
	.st1{display:none;fill:#F7B626;}
</style>
<path class="st0" d="M-281,385c-6.6,0-12,5.4-12,12s5.4,12,12,12s12-5.4,12-12S-274.4,385-281,385z M-281,407c-5.5,0-10-4.5-10-10
	s4.5-10,10-10s10,4.5,10,10S-275.5,407-281,407z"/>
<path class="st1" d="M-271,397c0,5.5-4.5,10-10,10s-10-4.5-10-10s4.5-10,10-10S-271,391.5-271,397z M-269,397c0-6.6-5.4-12-12-12
	c-6.6,0-12,5.4-12,12c0,6.6,5.4,12,12,12C-274.4,409-269,403.6-269,397z M-281,399l-4.5-4.5l-1.5,1.5l6,6l6-6l-1.5-1.5L-281,399z"/>
<path class="st0" d="M-275,392.8l-1.5-1.5l-4.5,4.5l-4.5-4.5l-1.3,1.3c0,0.1-0.1,0.2-0.1,0.3l5.9,5.9L-275,392.8z"/>
<path class="st0" d="M-275.1,397.9l-1.5-1.5l-4.5,4.5l-4.5-4.5l-1.3,1.3c0,0.1-0.1,0.2-0.1,0.3l5.9,5.9L-275.1,397.9z"/>
</svg>
